# xmcd CD database file
#
# Track frame offsets:
#	150
#	22700
#	42125
#	63950
#	84900
#	102487
#	121725
#	143712
#	160812
#
# Disc length: 2420 seconds
#
# Revision: 3
# Processed by: cddbd v1.4PL0 Copyright (c) Steve Scherf et al.
# Submitted via: CDex 1.40Beta9
#
DISCID=61097209
DTITLE=王傑 - Giving (Disk 2)
DYEAR=2000
DGENRE=Blues
TTITLE0=我感到疲倦
TTITLE1=我會知道幾時要退
TTITLE2=誰明浪子心(王傑/趙學而合唱)
TTITLE3=何謂情深
TTITLE4=今生無悔
TTITLE5=幾分傷心幾分痴
TTITLE6=我會等你
TTITLE7=陪我做夢
TTITLE8=可能
EXTD=YEAR: 2000 ID3G: 0
EXTT0=
EXTT1=
EXTT2=
EXTT3=
EXTT4=
EXTT5=
EXTT6=
EXTT7=
EXTT8=
PLAYORDER=
